<svg viewBox="0 0 2834.65 1133.86" xmlns="http://www.w3.org/2000/svg" id="Calque_1">
  <defs>
    <style>
      .cls-1 {
        fill: #fff;
        stroke-width: 0px;
      }
    </style>
  </defs>
  <path d="M983.46,115.22c.16,7.74.4,15.48.47,23.22.08,9.95.02,19.9.02,30.7,39.89,2.06,79.61,4.12,119.34,6.18.03.26.07.52.1.78-282.5,37.06-565,74.12-847.79,111.22v98.37c21.27,1.12,42.6,2.24,64.46,3.39v-51.37c29.32-3.86,58.2-7.66,87.78-11.55v67.36c9.83.56,19.05,1.09,28.26,1.61l.09.79c-85.48,11.25-170.95,22.5-256.83,33.8v-208.53c11.4-1.54,22.73-3.11,34.07-4.6,32.31-4.25,64.62-8.46,96.92-12.7,32.3-4.23,64.61-8.46,96.91-12.71,36.99-4.87,73.97-9.78,110.95-14.66,37.15-4.9,74.31-9.77,111.47-14.66,37.49-4.93,74.97-9.87,112.46-14.8,34.48-4.53,68.96-9.05,103.44-13.59,34.98-4.6,69.96-9.2,104.93-13.86,9.99-1.33,19.95-2.92,29.92-4.39,1.01,0,2.03,0,3.04,0Z" class="cls-1"></path>
  <path d="M2707.43,541.02c43.69-3.83,86.66-7.59,129.62-11.36.04.27.08.54.12.81-15.97,3.34-31.94,6.69-47.9,10.03-54.64,11.43-109.28,22.92-163.94,34.27-36.17,7.51-72.31,15.14-108.58,22.11-18.55,3.56-37.36,2.27-56.06.22-1.98-.22-3.96-.37-6.4-.6-3.35,23.15-6.65,45.95-10.06,69.53,6.49.77,12.42,1.79,18.39,2.12,30.81,1.71,61.49,1.03,91.57-6.76,21.06-5.46,39.93-14.81,52.77-33.31,3.32-4.79,5.8-10.17,9.31-16.42-14.61-.79-27.98-1.52-41.35-2.24-.04-.22-.09-.43-.13-.65,6.8-.99,13.59-2.07,20.4-2.96,29.79-3.91,59.56-7.96,89.39-11.52,7.43-.89,15.06-.13,22.81-.13v128.25c-735.69,96.78-1471.29,193.55-2207.43,290.39v-51.17c-56.19-2.9-111.89-5.78-167.59-8.66-.05-.37-.09-.75-.14-1.12,5.83-.83,11.65-1.71,17.49-2.48,50.88-6.72,101.77-13.44,152.66-20.12,49.88-6.55,99.79-12.88,149.65-19.62,27.24-3.69,54.51-7.41,81.55-12.3,17.23-3.11,33.21-10.33,46.95-21.56,19.08-15.59,27.57-36.37,27.83-60.48.32-30.9.7-61.83-.38-92.7-1.24-35.8-23.92-57.93-59.77-61.24-18.56-1.71-36.75.67-55,3.11-14.22,1.9-28.45,3.76-42.68,5.62-14.23,1.87-28.46,3.73-43.26,5.67v222.65c-36.12-1.87-71.62-3.71-107.57-5.57v-75.67c-33.74-1.76-67.03-3.5-100.32-5.23,0-.38,0-.76,0-1.13,33.34-4.4,66.67-8.8,100.12-13.21v-118.91c-106.78,14.04-213.29,28.04-320.46,42.13v-42.9c-59.19-3.07-117.82-6.1-176.45-9.14-.02-.32-.03-.64-.05-.96,901.42-118.56,1802.85-237.12,2704.68-355.74v63.72c-43.15,5.7-86.41,11.41-129.68,17.12.02.26.04.52.06.77,43.06,2.23,86.11,4.45,129.84,6.72v140.65ZM1640.88,539.76v239.83c23.85-3.18,47.24-6.52,70.7-9.25,5.21-.61,6.12-2.42,6.09-7.14-.19-33.44-.1-66.87-.1-100.31,0-1.69,0-3.38,0-5.08,1.39,1.41,1.81,2.82,2.21,4.24,6.32,22.37,12.71,44.72,18.9,67.12.84,3.05,1.88,3.97,5.19,3.49,14.7-2.13,29.44-4.01,44.19-5.75,3.35-.4,4.87-1.7,5.68-5,3.29-13.41,6.83-26.76,10.33-40.12,3.35-12.8,6.76-25.58,10.15-38.37.36.04.72.08,1.08.13v113.07c25.86-3.41,51.09-6.74,76.33-10.08v-239.72c-6.95.91-13.45,1.75-19.96,2.6-26.95,3.53-53.89,7.09-80.85,10.54-3.27.42-4.71,1.47-5.36,5.1-5.84,32.34-11.98,64.63-18.05,96.94-.25,1.33-.72,2.61-1.47,5.27-6.84-34.69-13.38-67.89-19.97-101.31-35.32,4.64-70.11,9.21-105.09,13.81ZM1617.34,782.64c-1-2.12-1.8-3.92-2.69-5.68-10.73-21.03-21.39-42.09-32.27-63.04-1.67-3.22-1.66-5.05,1.22-7.67,10.23-9.28,17.44-20.63,20.7-34.11,5.64-23.32,5.64-46.92.73-70.25-4.23-20.11-16.93-33.72-36.35-40.83-14.23-5.21-29.06-6.56-43.93-5.15-22,2.08-43.92,5.07-65.86,7.81-17.04,2.13-34.05,4.49-51.17,6.75v75.09c29.08-2.69,57.77-5.34,86.9-8.04v-13.36c3.98-.5,7.32-.95,10.67-1.35,11.91-1.42,14.48.46,16.22,12.2,10.83-.98,21.69-1.96,32.54-2.94.03.23.07.47.1.7-10.97,2.24-21.95,4.49-33.18,6.78,0,7.55.1,14.79-.03,22.03-.11,6.34-2.79,10.54-8.74,12.19-5.56,1.54-11.4,2.06-17.67,3.12v-31.71c-1.46.1-2.48.06-3.46.26-26.11,5.26-52.2,10.65-78.35,15.7-4.08.79-5.47,1.96-5.45,6.33.18,45.76.11,91.53.12,137.29v5.46c29.3-3.84,58-7.6,87.22-11.43v-60.54c5.12-2.23,7.32-.52,9.08,4.01,6.27,16.19,13.01,32.19,19.43,48.32,1.17,2.94,2.59,4.23,5.96,3.7,7.83-1.23,15.73-2.09,23.59-3.13,21.39-2.82,42.77-5.64,64.66-8.53ZM828.6,646.61v239.8c57.17-7.53,114-15.01,170.68-22.47v-70.43c-28.11,3.68-55.79,7.3-83.65,10.94v-17.59c25.62-3.39,50.99-6.75,76.4-10.11v-63.31c-25.64,3.35-50.85,6.64-76.41,9.98v-17.2c1.14-.32,2.24-.76,3.37-.91,23.93-3.15,47.86-6.39,71.82-9.29,4.01-.48,5.43-1.55,5.39-5.76-.21-20.43-.09-40.87-.11-61.31,0-1.29-.24-2.58-.41-4.32-55.87,7.35-111.38,14.64-167.09,21.97ZM2349.75,615.81c0-5.09.14-9.62-.05-14.14-.12-2.86,1.09-3.73,3.77-4.06,16.08-1.98,32.15-4.09,48.21-6.2,8.31-1.09,16.6-2.29,24.73-3.41v-63.27c-25.65,3.36-50.86,6.66-76.67,10.05,0-5.05.13-9.57-.05-14.09-.11-2.83,1.07-3.79,3.75-4.12,16.08-1.99,32.14-4.09,48.21-6.2,9.63-1.27,19.25-2.63,28.8-3.94v-70.53c-55.99,7.36-111.63,14.68-167.3,22v239.8c9.37-1.27,18.35-2.52,27.35-3.7,46.19-6.07,92.37-12.19,138.59-18.07,4.1-.52,5.29-1.76,5.25-5.83-.19-20.26-.08-40.53-.1-60.79,0-1.44-.21-2.88-.34-4.53-28.06,3.68-55.64,7.3-84.15,11.04ZM2112.83,619.93c.38-.09.76-.18,1.14-.27.47,1.05.95,2.11,1.41,3.17,12.38,28.44,24.81,56.85,37.08,85.34,1.29,3,2.56,3.83,5.95,3.34,16.7-2.4,33.47-4.39,50.2-6.58,9.65-1.26,19.29-2.64,28.94-3.96v-158.11c-1.47.17-2.63.21-3.75.46-23.55,5.17-47.09,10.38-70.64,15.54-8.81,1.93-8.82,1.9-9.25,10.37-.01.21-.35.41-.75.85-.83-1.77-1.76-3.35-2.31-5.05-.86-2.64-2.26-3.07-4.96-2.47-37.2,8.27-74.41,16.48-111.67,24.47-3.96.85-5.06,2.31-5.04,6.27.14,43.22.09,86.45.09,129.67v5.49c28.13-3.71,55.65-7.33,83.57-11.01v-97.53ZM1279.82,745.18c.08.31.17.61.25.92-1.34.51-2.67,1.1-4.04,1.53-18.33,5.78-36.64,11.62-55.02,17.25-3.18.97-4.59,2.17-4.55,5.82.21,19.93.09,39.86.11,59.79,0,1.45.22,2.9.37,4.73,7.84-.96,15.21-1.79,22.55-2.76,47.7-6.3,95.38-12.68,143.1-18.85,3.84-.5,5.13-1.64,5.09-5.55-.17-20.6-.08-41.21-.1-61.81,0-1.13-.18-2.27-.3-3.77-28,3.66-55.68,7.27-83.41,10.9v-17.61c24.35-3.2,48.27-6.42,72.21-9.4,3.48-.43,4.51-1.71,4.48-5.07-.14-16.55-.08-33.1-.11-49.65,0-1.13-.23-2.26-.38-3.59-.92.09-1.58.09-2.2.22-52.6,10.53-105.2,21.1-157.82,31.53-2.81.56-3.55,1.68-3.53,4.32.09,15.37.03,30.74.06,46.11,0,.98.26,1.95.43,3.13,21.06-2.75,41.93-5.47,62.8-8.19ZM1061.89,684.62v89.18c29.27-3.85,57.82-7.61,86.98-11.45v-89.23c15.66-2.04,30.68-4.18,45.75-5.85,4.65-.51,5.78-2.58,5.75-6.78-.13-19.41-.04-38.82-.07-58.24,0-1.41-.28-2.81-.45-4.44-29.17,3.81-57.75,7.52-86.33,11.27-32.62,4.28-65.22,8.65-97.86,12.8-3.74.48-5.13,1.54-5.08,5.53.21,19.75.09,39.5.11,59.25,0,1.31.18,2.62.32,4.55,16.8-2.18,33.3-4.32,50.88-6.59ZM2604.7,486.06c2.89-22.34,5.89-45.51,8.93-69.02-2.29-.31-3.93-.61-5.58-.74-23.49-1.95-46.92-1.35-70.26,1.96-17.18,2.44-33.68,7.12-48.65,16.15-31.52,19.02-43.9,48.05-43.3,83.69.22,13.16,2.21,25.83,10.15,36.96,4.01,5.62,8.66,7.64,15.84,6.92,33.27-3.34,66.61-6.05,99.92-8.99,15.44-1.37,30.88-2.76,46.39-4.15-.08-.85-.05-1.37-.19-1.84-5.27-18.42-18.66-28.06-36.31-32.22-13.93-3.29-28.16-5.31-42.2-8.17-4.45-.91-10.38-1.31-10.6-7.43-.22-6.38,5.55-8.39,10.43-9.14,11.62-1.79,23.34-3.12,35.07-3.85,9.88-.62,19.84-.13,30.36-.13ZM2004.25,593.91c-2.34.39-3.84.57-5.3.89-25.67,5.64-51.31,11.4-77.02,16.82-4.05.85-5.01,2.5-5,6.36.13,39.98.07,79.97.09,119.96,0,1.6.2,3.2.33,5.05,1.37-.13,2.19-.18,3-.28,25.41-3.34,50.83-6.66,76.24-10.04,7.65-1.02,7.64-1.09,7.64-8.64,0-40.83,0-81.66.01-122.49,0-2.33,0-4.65,0-7.63ZM1216.9,595.54v68.48c56.02-6.39,111.56-12.73,166.82-19.03v-71.39c-55.75,7.34-111.13,14.62-166.82,21.95ZM2142.83,548.08c-.23-1.21-.24-1.9-.5-2.49-9.33-21.49-18.78-42.92-27.94-64.48-1.62-3.83-4.1-3.17-6.91-2.8-24.42,3.25-48.82,6.67-73.27,9.63-4.39.53-5.06,2.18-5.02,6,.17,16.88.07,33.76.07,50.64,0,4.01,0,8.02,0,12.75,38.18-3.11,75.77-6.17,113.57-9.25ZM2154.36,472.22v74.58c2.03,0,3.71.12,5.38-.02,24.71-1.99,49.42-4.08,74.14-5.95,3.5-.26,4.02-1.81,4.01-4.8-.09-23.44-.04-46.89-.07-70.33,0-1.29-.24-2.57-.43-4.41-27.88,3.67-55.39,7.28-83.04,10.92ZM2003.9,559.37v-67.37c-29.12,3.83-57.83,7.61-86.61,11.4v62.99c29.02-2.35,57.72-4.68,86.61-7.03ZM1061.73,855.74c29.49-3.88,58.16-7.66,86.7-11.42v-56.49c-28.37,8.95-56.28,17.74-84.16,26.67-1.07.34-2.43,1.99-2.44,3.05-.17,12.45-.11,24.89-.11,38.2ZM965.93,578.58c-5.5.69-9.95,1.24-14.39,1.82-19.05,2.5-38.11,4.96-57.14,7.59-1.74.24-4.42,1.25-4.8,2.48-3.69,12-6.97,24.12-10.46,36.49,1.84,0,3.19.13,4.5-.02,15.57-1.79,31.12-3.89,46.73-5.3,5.66-.51,9.23-2.66,11.87-7.56,2.23-4.13,5.18-7.88,7.81-11.8,5.12-7.64,10.23-15.27,15.88-23.71ZM2313.59,438.4c1.71,0,2.54.08,3.36-.01,15.41-1.79,30.78-4.09,46.24-5.21,7.38-.54,11.67-3.71,14.85-9.81,1.55-2.97,3.75-5.6,5.62-8.4,5.46-8.16,10.9-16.34,16.76-25.13-3.44.44-5.94.74-8.44,1.07-21.23,2.77-42.47,5.48-63.68,8.41-1.6.22-3.89,1.72-4.31,3.1-3.61,11.72-6.86,23.55-10.4,35.98Z" class="cls-1"></path>
  <path d="M677.97,522.9c3.43-23.59,6.8-46.7,10.17-69.84,8.52.71,16.38,1.44,24.26,2.01,15.92,1.16,31.73.3,47.3-3.36,4.54-1.07,10.38-2.09,10.32-7.92-.06-6.18-6.29-6.25-10.72-7.09-11.93-2.27-24.01-3.75-35.88-6.27-29.1-6.18-41.11-19.96-43.36-49.6-1.85-24.26,2.39-47.14,17.25-67.11,13.93-18.73,33.29-29.32,55.4-35.01,31.12-8,62.79-8.03,95.38-5.39-3.05,23.69-6.05,46.99-9.16,71.14-3.63-.21-7.08-.41-10.53-.6-17.38-.95-34.78-1.97-51.91,2.32-3.08.77-6.36,1.67-8.87,3.46-2.07,1.48-4.27,4.36-4.26,6.62,0,1.8,2.95,4.64,5.08,5.22,7.78,2.11,15.79,3.41,23.68,5.13,10.53,2.3,21.26,3.97,31.48,7.23,16.03,5.12,26.13,16.53,29.59,33.04,4.29,20.5,3.9,40.99-2.99,60.92-8.64,24.99-27.54,39.28-51.66,47.61-22.44,7.74-45.78,10.2-69.32,10.28-15.67.05-31.35-1.29-47.03-2.05-1.15-.06-2.3-.39-4.23-.74Z" class="cls-1"></path>
  <path d="M497.07,420.74c32.14-10.09,64.04-20.45,96.19-29.99,9.12-2.71,18.93-3.11,28.45-4.42,12.87-1.77,25.76-3.39,39.01-5.12.15,1.6.39,2.88.39,4.17.02,18.41-.1,36.81.09,55.22.04,3.73-1.12,4.72-4.77,5.17-22.96,2.82-45.88,5.91-68.78,9.1-1.31.18-3.34,1.88-3.44,3.02-.4,4.49-.16,9.04-.16,14.38,28.23-3.69,55.91-7.3,83.99-10.97.22,1.68.53,2.94.53,4.21.03,20.77-.04,41.54.08,62.31.02,3.34-.92,4.62-4.45,5.07-55.25,7.15-110.47,14.46-165.7,21.73-.33.04-.67,0-1.43,0v-133.88Z" class="cls-1"></path>
  <path d="M983.73,213.15v278.37c-25.37-1.29-50.55-2.57-76.19-3.88,0-2.44,0-4.26,0-6.08,0-79.52.05-159.05-.09-238.57,0-4.46,1.21-6.27,5.61-7.6,23.38-7.09,46.63-14.63,70.67-22.24Z" class="cls-1"></path>
  <path d="M407.89,449.31v44.19c24.47-3.19,48.47-6.32,72.77-9.49v72.96c-53.38,7.02-106.55,14.02-160.18,21.07-.12-1.66-.3-3.09-.3-4.51-.02-30.9,0-61.79-.05-92.69,0-2.69.1-4.57,3.41-5.59,27.06-8.35,54.04-16.94,81.06-25.43.78-.25,1.63-.26,3.29-.5Z" class="cls-1"></path>
  <path d="M664.71,363.59c-55.91,7.36-111.57,14.69-167.66,22.07v-71.23c55.71-7.34,111.52-14.68,167.66-22.08v71.23Z" class="cls-1"></path>
  <path d="M254.91,604.08c-15.02-.76-29.82-1.52-44.62-2.27-8.94-.45-17.87-1-26.82-1.25-3.1-.09-4.51-.78-4.5-4.26.1-38.5.04-77.01.18-115.51,0-1.35,1.4-3.52,2.61-3.9,24.2-7.83,48.46-15.45,73.16-23.25v150.44Z" class="cls-1"></path>
  <path d="M694.58,729.49c4.82-.68,9.32-1.46,13.85-1.92,8.02-.81,12.16,2.91,12.17,10.91.04,28.36.03,56.71,0,85.07,0,7.21-3.35,11.44-10.17,13.11-1.64.4-3.31.66-4.99.87-3.5.45-7,.83-10.86,1.29v-109.33Z" class="cls-1"></path>
</svg>